<?xml version="1.0" encoding="UTF-8" standalone="no"?>
<svg
   xmlns:dc="http://purl.org/dc/elements/1.1/"
   xmlns:cc="http://creativecommons.org/ns#"
   xmlns:rdf="http://www.w3.org/1999/02/22-rdf-syntax-ns#"
   xmlns:svg="http://www.w3.org/2000/svg"
   xmlns="http://www.w3.org/2000/svg"
   xmlns:sodipodi="http://sodipodi.sourceforge.net/DTD/sodipodi-0.dtd"
   xmlns:inkscape="http://www.inkscape.org/namespaces/inkscape"
   width="155.31"
   height="97"
   viewBox="0 0 124.2464 77.599952"
   version="1.1"
   id="svg2"
   inkscape:version="0.91 r13725"
   sodipodi:docname="logo-centrale-nantes-etudes.svg">
  <sodipodi:namedview
     pagecolor="#ffffff"
     bordercolor="#666666"
     borderopacity="1"
     objecttolerance="10"
     gridtolerance="10"
     guidetolerance="10"
     inkscape:pageopacity="0"
     inkscape:pageshadow="2"
     inkscape:window-width="640"
     inkscape:window-height="480"
     id="namedview94"
     showgrid="false"
     inkscape:zoom="2.2921898"
     inkscape:cx="77.654999"
     inkscape:cy="48.5"
     inkscape:window-x="0"
     inkscape:window-y="0"
     inkscape:window-maximized="0"
     inkscape:current-layer="svg2" />
  <style
     id="style4">.style0{fill:	#155883;}.style1{fill:	#fcd00f;}.style2{fill:	#1780c2;}</style>
  <metadata
     id="metadata6">
    <rdf:RDF>
      <cc:Work
         rdf:about="">
        <dc:format>image/svg+xml</dc:format>
        <dc:type
           rdf:resource="http://purl.org/dc/dcmitype/StillImage" />
        <dc:title />
      </cc:Work>
    </rdf:RDF>
  </metadata>
  <defs
     id="defs8" />
  <path
     d="m 31.86 1.61 c 7.49 -1.73 15.6 -0.68 22.37 2.97 3.99 2.12 7.48 5.11 10.27 8.65 -2.28 0.01 -4.56 0 -6.84 0.01 C 52.9 8.87 46.49 6.34 40.02 6.3 35.84 6.23 31.64 7.18 27.89 9.03 22.95 11.46 18.8 15.46 16.18 20.3 c -3.56 6.51 -4.21 14.52 -1.75 21.51 2.04 5.93 6.25 11.07 11.65 14.25 5.36 3.22 11.88 4.39 18.04 3.36 4.66 -0.77 9.09 -2.82 12.71 -5.84 2.34 0.01 4.68 -0.01 7.01 0.01 -3.66 4.37 -8.46 7.78 -13.84 9.7 C 42.9 65.88 34.89 65.84 27.82 63.18 21.65 60.89 16.24 56.64 12.53 51.22 9.13 46.29 7.17 40.38 6.92 34.4 6.66 28.51 8.04 22.55 10.91 17.41 15.25 9.5 23.05 3.59 31.86 1.61 Z"
     class="style0"
     id="path10" />
  <path
     d="m 40.145496,9.4398897 c 0.13,1.3500003 0.84,2.6000003 0.74,3.9800003 -0.06,0.88 -1,1.45 -1.82,1.44 -1.28,-0.03 -2.4,-1.08 -3.71,-0.66 0.98,0.57 2.01,1.19 2.54,2.24 0.42,0.77 0.41,1.91 -0.34,2.48 -0.66,0.46 -1.51,0.39 -2.27,0.54 -0.65,0.06 -1.23,0.37 -1.78,0.7 0.9,0.12 1.85,0.13 2.66,0.59 0.68,0.36 1.2,1.08 1.16,1.87 0.05,0.71 -0.26,1.5 -0.96,1.77 -0.91,0.36 -1.93,0.51 -2.62,1.26 1.08,0.03 2.28,-0.19 3.24,0.43 0.9,0.6 1,1.99 0.31,2.79 -0.75,0.91 -1.82,1.51 -2.42,2.55 1.61,-0.38 3.26,-0.08 4.88,-0.15 0.77,-3.94 -0.39,-7.91 -0.25,-11.87 0.08,-1.4 0.34,-2.92 1.35,-3.97 0.6,-0.64 1.44,-0.91 2.26,-1.15 -0.78,0.44 -1.54,0.98 -1.98,1.77 -0.9,1.52 -0.88,3.35 -0.82,5.06 0.15,3.45 1,6.95 0.13,10.37 1.6,0.34 3.14,0.92 4.77,1.16 0.42,-0.74 0.86,-1.47 1.24,-2.22 0.76,-1.48 1.14,-3.23 0.74,-4.87 -0.63,-2.16 -2.65,-3.57 -3.31,-5.72 -0.26,-0.84 0.27,-1.58 0.84,-2.13 -0.12,0.85 -0.18,1.78 0.3,2.55 0.83,1.38 2.43,1.98 3.46,3.16 0.44,0.46 0.68,1.06 0.9,1.65 0.59,-0.16 1.19,-0.3 1.74,-0.59 -0.5,-0.63 -1.27,-1.13 -1.41,-1.98 -0.1,-0.83 0.5,-1.53 1.08,-2.04 1.12,-0.93 2.42,-1.63 3.62,-2.46 -1,0.39 -2.19,0.82 -3.21,0.29 -0.96,-0.52 -1.2,-1.78 -0.93,-2.77 0.19,-0.88 0.8,-1.56 1.34,-2.24 -1.06,0.32 -1.89,1.24 -3.03,1.34 -0.5,0.02 -1.14,0.08 -1.42,-0.43 -0.85,-1.32 -0.48,-2.98 -0.34,-4.4400003 -0.4,0.9700003 -0.88,1.9900003 -1.76,2.6200003 -0.74,0.56 -1.82,0.51 -2.58,0.02 -1.1,-0.67 -1.76,-1.82 -2.37,-2.9100003 z m 8.35,9.5000003 c 0.61,0.02 1.19,0.51 1.33,1.11 0.07,0.64 -0.6,1.29 -1.25,1.11 -0.55,-0.09 -0.83,-0.62 -1.12,-1.04 0.17,-0.43 0.26,-1.02 0.78,-1.17 0.09,-0.02 0.18,-0.02 0.26,-0.02 z"
     class="style1"
     id="path12"
     inkscape:connector-curvature="0"
     style="fill:#fcd00f" />
  <path
     d="m 74.42 17.37 c 1.7 0.01 3.4 0 5.09 0 3.87 4.5 6.38 10.41 6.03 16.41 -0.32 5.98 -3.11 11.75 -7.44 15.87 -1.87 0 -3.74 -0 -5.61 0 -8.08 -9.87 -16.11 -19.77 -24.2 -29.64 -2.72 2.43 -4.33 5.9 -4.99 9.44 -0.58 3.3 -0.5 6.78 0.63 9.96 1.5 4.25 4.6 7.87 8.41 10.23 -2.05 0 -4.1 -0 -6.15 0 -1.89 -1.45 -3.35 -3.39 -4.46 -5.48 -1.77 -3.34 -2.58 -7.14 -2.64 -10.9 -0.19 -5.82 2.29 -11.47 5.95 -15.9 2.18 0 4.35 -0 6.53 0 7.94 10.03 15.87 20.06 23.82 30.07 2.46 -1.96 4.35 -4.61 5.5 -7.53 1.19 -3.02 1.5 -6.35 1.1 -9.56 -0.57 -5.12 -3.26 -10.08 -7.57 -12.98 z"
     class="style0"
     id="path14" />
  <path
     d="m 83.98 17.37 c 10.64 -0.01 21.28 0 31.92 -0 -0 1.14 -0 2.28 0 3.42 -9.79 -0 -19.58 0 -29.37 -0 -0.85 -1.14 -1.69 -2.28 -2.55 -3.42 z"
     class="style2"
     id="path16" />
  <path
     d="m 88.29 31.1 c 6.06 0 12.13 0 18.19 0 -0 1.14 0 2.28 0 3.43 -6.06 0 -12.13 0 -18.19 0 0 -1.14 0 -2.28 0 -3.43 z"
     class="style2"
     id="path18" />
  <path
     d="m 103.46155,31.212746 c 0.19,-0.56 0.49,-1.21 1.17,-1.26 1.35,-0.09 2.61,0.55 3.77,1.14 -0.25,0.38 -0.52,0.86 -1.04,0.87 -1.35,0.07 -2.59,-0.59 -3.91,-0.76 z"
     class="style1"
     id="path22"
     inkscape:connector-curvature="0"
     style="fill:#fcd00f" />
  <path
     d="m 103.76155,32.162746 c 1.31,-0.28 2.61,0.34 3.73,0.96 -0.24,0.32 -0.47,0.78 -0.94,0.75 -1.28,0.07 -2.52,-0.36 -3.79,-0.39 0.18,-0.53 0.37,-1.18 1,-1.32 z"
     class="style1"
     id="path24"
     inkscape:connector-curvature="0"
     style="fill:#fcd00f" />
  <path
     d="m 103.13155,34.432746 c 1.09,-0.43 2.4,-0.27 3.4,0.33 0.4,0.3 -0.14,0.63 -0.41,0.77 -1.21,0.53 -2.57,0.34 -3.82,0.1 0.15,-0.47 0.32,-1.02 0.84,-1.2 z"
     class="style1"
     id="path26"
     inkscape:connector-curvature="0"
     style="fill:#fcd00f" />
  <path
     d="m 22.51 44.69 c 1 -0.49 2.15 -0.32 3.22 -0.31 -0.18 0.44 -0.31 0.97 -0.79 1.17 -1.03 0.44 -2.18 0.36 -3.27 0.58 0.14 -0.54 0.27 -1.18 0.83 -1.44 z"
     class="style1"
     id="path28" />
  <path
     d="m 30.98 45.22 c 0.67 -0 1.26 0.34 1.85 0.6 -0.19 0.59 -0.47 1.14 -0.77 1.68 -0.26 -0.09 -0.52 -0.18 -0.78 -0.27 0.05 -0.69 0.08 -1.4 -0.3 -2.01 z"
     class="style1"
     id="path30" />
  <path
     d="m 29.02 46.3 c 0.34 -0.33 0.76 -0.86 1.29 -0.62 0.52 0.2 0.54 0.82 0.66 1.28 -0.76 0.24 -1.38 -0.25 -1.95 -0.66 z"
     class="style1"
     id="path32" />
  <path
     d="m 86.25 46.05 c 9.88 -0 19.76 0 29.64 -0 -0 1.2 0 2.4 -0 3.6 -10.64 -0 -21.27 0 -31.91 -0 0.76 -1.2 1.52 -2.39 2.28 -3.59 z"
     class="style2"
     id="path34" />
  <path
     d="m 22.6 46.96 c 0.87 -0.7 2.06 -0.77 3.13 -0.83 -0.18 0.51 -0.42 1.07 -0.95 1.3 -0.81 0.38 -1.67 0.61 -2.48 0.99 -0.04 -0.5 -0.16 -1.1 0.3 -1.45 z"
     class="style1"
     id="path36" />
  <path
     d="m 33.58 46.83 c 0.28 0.32 0.61 0.71 0.42 1.17 -0.25 0.73 -1.07 0.93 -1.75 1 0.01 -0.33 -0.03 -0.67 0.08 -0.98 0.36 -0.46 0.85 -0.78 1.25 -1.19 z"
     class="style1"
     id="path38" />
  <path
     d="m 28.52 47.32 c 0.45 -0.01 0.9 -0.01 1.36 -0.01 -0.13 0.41 -0.27 0.82 -0.43 1.23 -0.53 -0.21 -0.85 -0.66 -0.93 -1.22 z"
     class="style1"
     id="path40" />
  <path
     d="m 23.29 48.76 c 0.67 -0.29 1.29 -0.69 1.96 -0.97 0.37 -0.21 0.77 0.01 1.13 0.11 -0.67 1.14 -1.65 2.07 -2.84 2.65 -0.11 -0.59 -0.2 -1.19 -0.25 -1.78 z"
     class="style1"
     id="path42" />
  <path
     d="m 26.67 48.66 c 0.24 0.35 0.53 0.76 0.31 1.2 -0.37 0.86 -0.93 1.64 -1.21 2.54 -0.37 -0.51 -0.7 -1.04 -1.06 -1.55 0.42 -0.92 1.29 -1.48 1.97 -2.2 z"
     class="style1"
     id="path44" />
  <path
     d="m 31.5 49.56 c 0.88 -0.29 1.8 -0.2 2.71 -0.17 -0.14 0.42 -0.19 0.99 -0.68 1.16 -0.83 0.37 -1.7 -0.24 -2.03 -0.99 z"
     class="style1"
     id="path46" />
  <path
     d="m 27.37 50.37 c 0.29 -0.35 0.79 -0.32 1.2 -0.41 -0.22 1.05 -0.18 2.12 -0.2 3.18 -0.69 -0.15 -1.27 -0.63 -1.55 -1.28 0.08 -0.52 0.22 -1.06 0.55 -1.49 z"
     class="style1"
     id="path48" />
  <path
     d="m 29.04 50.18 c 1.14 0.48 1.1 1.97 2.12 2.59 -0.65 0.03 -1.3 0.01 -1.95 -0.01 -0.38 -0.81 -0.49 -1.74 -0.16 -2.58 z"
     class="style1"
     id="path50" />
  <path
     d="m 30.17 50.21 c 0.36 0.03 0.8 -0.15 1.1 0.14 0.53 0.47 1.06 0.95 1.72 1.24 -0.44 0.27 -0.93 0.62 -1.47 0.43 -0.82 -0.21 -1.24 -1.03 -1.34 -1.82 z"
     class="style1"
     id="path52" />
  <path
     d="M 1.64 70.94 C 2.42 70 3.64 69.54 4.83 69.45 5.84 69.44 6.82 69.8 7.66 70.34 7.62 70.53 7.59 70.71 7.55 70.9 6.86 70.68 6.24 70.25 5.51 70.15 4.11 69.93 2.53 70.54 1.83 71.82 c -0.5 0.85 -0.46 1.97 0.09 2.79 0.85 1.31 2.63 1.85 4.1 1.39 0.47 -0.14 0.88 -0.43 1.34 -0.6 0.29 0.1 0.37 0.28 0.23 0.54 -1.89 1.44 -5.01 1 -6.29 -1.05 -0.79 -1.2 -0.62 -2.89 0.34 -3.95 z"
     class="style0"
     id="path54" />
  <path
     d="m 90.49 69.53 c 1.52 -0.18 3.06 -0.06 4.59 -0.07 0.02 0.21 0.03 0.41 0.05 0.62 -1.32 0.06 -2.65 0.02 -3.97 0.03 -0 0.89 -0 1.78 0 2.67 1.12 0.04 2.26 -0.08 3.38 0.05 0.06 0.06 0.19 0.18 0.26 0.24 -0.19 0.39 -0.64 0.29 -0.99 0.32 -0.88 -0.01 -1.76 -0.01 -2.64 -0.01 -0.01 0.89 -0 1.78 -0.01 2.67 1.32 0.01 2.64 -0.02 3.97 0.02 -0.01 0.2 -0.02 0.4 -0.02 0.61 -1.54 -0.01 -3.08 0.08 -4.61 -0.06 -0.03 -2.37 -0.04 -4.73 0 -7.1 z"
     class="style2"
     id="path56" />
  <path
     d="m 96.82 69.59 c 0.22 -0.01 0.43 -0.02 0.65 -0.02 0.04 0.67 0.03 1.33 0.03 2 0.38 0.09 1.11 -0.1 0.99 0.53 -0.32 0.1 -0.66 0.15 -0.99 0.21 0.01 1.2 0 2.39 0 3.59 0.21 0.09 0.42 0.18 0.63 0.27 0.01 0.15 0.03 0.31 0.04 0.47 -0.52 0.05 -1.22 -0.03 -1.33 -0.66 -0.1 -1.25 -0 -2.51 -0.04 -3.76 -0.31 -0.01 -0.61 -0.02 -0.92 -0.03 0 -0.19 0.01 -0.37 0.01 -0.55 0.3 -0.02 0.6 -0.02 0.91 -0.03 0 -0.67 -0 -1.34 0.01 -2.01 z"
     class="style2"
     id="path58" />
  <path
     d="m 111.59 69.39 c -0.13 0.06 -0.39 0.19 -0.52 0.25 -0 0.92 -0.01 1.84 0 2.77 -1.1 -0.99 -2.94 -1.11 -4.01 -0.02 -1.06 0.94 -0.99 2.77 0.12 3.64 1.1 0.96 2.81 0.82 3.88 -0.12 0.01 0.24 0.02 0.48 0.04 0.72 0.21 -0.01 0.42 -0.02 0.64 -0.03 0.03 -1.86 -0 -3.71 0.02 -5.57 -0 -0.55 0.03 -1.12 -0.17 -1.64 z m -2.58 2.84 c 0.97 0 1.93 0.68 2.05 1.69 0.17 1.12 -0.86 2.13 -1.95 2.14 -1.02 0.07 -2.07 -0.74 -2.12 -1.79 -0.07 -0.86 0.55 -1.67 1.36 -1.93 0.21 -0.08 0.44 -0.11 0.66 -0.11 z"
     class="style2"
     id="path60" />
  <path
     d="m 21.95 69.78 c 0.14 -0.05 0.44 -0.15 0.58 -0.2 0.17 0.67 0.11 1.37 0.11 2.06 0.33 0.05 0.67 0.09 0.99 0.2 0.12 0.63 -0.61 0.43 -0.99 0.51 0 1.22 -0 2.43 0 3.65 0.23 0.09 0.45 0.19 0.68 0.28 -0.03 0.17 -0.06 0.34 -0.09 0.5 -0.53 0.01 -1.2 -0.16 -1.27 -0.78 -0.06 -1.23 -0.01 -2.45 -0.02 -3.68 -0.3 -0.01 -0.6 -0.02 -0.9 -0.03 -0.02 -0.18 -0.03 -0.35 -0.05 -0.52 0.32 -0.04 0.63 -0.08 0.95 -0.12 -0.01 -0.63 -0.01 -1.25 -0.01 -1.88 z"
     class="style0"
     id="path62" />
  <path
     d="m 35.39 70.52 c -0.02 -0.42 -0.02 -1.19 0.62 -0.9 0.11 0.52 0.06 1.05 0.07 1.58 -0.02 1.84 0.03 3.68 -0.02 5.52 -0.19 0.01 -0.39 0.02 -0.58 0.03 -0.18 -2.07 -0.03 -4.16 -0.09 -6.24 z"
     class="style0"
     id="path64" />
  <path
     d="m 50.1 71.21 c 0.01 -0.54 -0.04 -1.08 0.07 -1.61 0.43 -0.07 0.66 0.31 0.9 0.59 1.4 1.78 2.83 3.54 4.24 5.32 0.05 -1.94 -0.09 -3.88 0.09 -5.82 0.19 0.01 0.39 0.02 0.59 0.04 0.04 2.08 0 4.16 0.02 6.24 -0.02 0.36 0.08 1.01 -0.5 0.78 -1.63 -1.9 -3.15 -3.9 -4.72 -5.86 -0.06 1.95 0.09 3.92 -0.09 5.86 -0.19 -0.01 -0.38 -0.02 -0.57 -0.03 -0.05 -1.84 -0.01 -3.68 -0.02 -5.52 z"
     class="style0"
     id="path66" />
  <path
     d="m 70.96 69.78 c 0.15 -0.05 0.44 -0.16 0.59 -0.21 0.14 0.68 0.1 1.37 0.09 2.06 0.34 0.05 0.68 0.1 1.01 0.21 0.09 0.63 -0.62 0.44 -1.01 0.52 0.04 1.2 -0.07 2.42 0.05 3.62 0.2 0.14 0.42 0.24 0.64 0.36 -0.04 0.15 -0.07 0.31 -0.11 0.47 -0.52 -0 -1.2 -0.19 -1.25 -0.81 -0.07 -1.21 -0.01 -2.44 -0.03 -3.65 -0.3 -0.01 -0.6 -0.02 -0.9 -0.03 -0.02 -0.17 -0.03 -0.35 -0.04 -0.52 0.31 -0.04 0.63 -0.09 0.95 -0.13 -0.01 -0.62 -0.01 -1.25 -0.01 -1.87 z"
     class="style0"
     id="path68" />
  <path
     d="m 100.31 71.61 c 0.19 0.01 0.38 0.03 0.57 0.04 0.06 1.05 -0.04 2.1 0.05 3.15 0.16 1.14 1.67 1.63 2.56 0.98 0.38 -0.25 0.67 -0.67 0.65 -1.15 0.03 -1.01 -0.03 -2.01 0.09 -3.02 0.19 0 0.38 0.01 0.58 0.02 0.03 1.05 0.04 2.1 0.01 3.15 -0.07 1.28 -1.52 2.1 -2.7 1.86 -0.93 -0.14 -1.79 -0.89 -1.86 -1.86 -0.06 -1.06 -0.07 -2.13 0.05 -3.19 z"
     class="style2"
     id="path70" />
  <path
     d="m 120.24 71.8 c 0.7 -0.28 1.51 -0.26 2.2 0.04 0.34 0.15 0.79 0.33 0.74 0.79 -0.71 0.2 -1.27 -0.56 -1.98 -0.46 -0.45 0.05 -1.1 0.21 -1.17 0.74 -0.05 0.47 0.5 0.61 0.85 0.71 0.84 0.21 1.94 0.22 2.41 1.08 0.4 0.58 -0.07 1.28 -0.59 1.6 -1.02 0.65 -2.37 0.39 -3.31 -0.27 -0.18 -0.1 -0.22 -0.3 -0.26 -0.47 0.49 -0.28 0.94 0.21 1.4 0.33 0.82 0.38 1.79 0.09 2.32 -0.62 -0.41 -0.91 -1.46 -0.92 -2.29 -1.12 -0.53 -0.14 -1.19 -0.45 -1.22 -1.08 -0.1 -0.59 0.37 -1.09 0.89 -1.29 z"
     class="style2"
     id="path72" />
  <path
     d="m 11.42 71.69 c -0.2 -0 -0.4 0.01 -0.6 0.06 -1.43 0.19 -2.55 1.69 -2.14 3.12 0.44 1.68 2.61 2.43 4.06 1.55 0.44 -0.28 1.12 -0.7 0.79 -1.31 -0.44 0.08 -0.69 0.47 -1.05 0.7 C 11.69 76.39 10.5 76.24 9.82 75.56 9.5 75.25 9.37 74.81 9.23 74.4 c 1.62 -0.05 3.24 0.06 4.86 -0.06 -0 -1.44 -1.28 -2.62 -2.67 -2.65 z m -0.15 0.62 c 0.06 -0 0.12 0 0.18 0.01 0.9 0.01 1.6 0.68 1.92 1.47 -1.37 0.01 -2.74 0.01 -4.11 0 0.34 -0.81 1.1 -1.48 2 -1.48 z"
     class="style0"
     id="path74" />
  <path
     d="m 15.31 71.67 c 0.32 0.06 0.61 0.2 0.71 0.54 0.71 -0.47 1.61 -0.62 2.42 -0.34 0.78 0.28 1.41 1.04 1.41 1.89 0.02 0.99 0.01 1.98 -0.01 2.97 -0.16 0 -0.47 0.01 -0.63 0.02 -0.07 -1.06 0.02 -2.12 -0.05 -3.17 -0.14 -0.93 -1.24 -1.47 -2.1 -1.18 -0.59 0.17 -1.12 0.69 -1.12 1.33 -0.04 1 0.01 2 -0.03 3 -0.16 0.01 -0.47 0.02 -0.63 0.02 -0.03 -1.69 -0.07 -3.39 0.03 -5.09 z"
     class="style0"
     id="path76" />
  <path
     d="m 24.77 71.75 c 0.19 0.01 0.38 0.02 0.58 0.03 0.01 0.35 0.01 0.71 0.02 1.06 0.63 -0.71 1.51 -1.23 2.5 -1.11 0.01 0.17 0.02 0.34 0.03 0.51 -0.55 0.1 -1.15 0.17 -1.57 0.58 -0.44 0.42 -0.81 0.96 -0.94 1.56 -0.08 0.77 0.03 1.54 -0.06 2.31 -0.13 0.02 -0.38 0.07 -0.5 0.09 -0.19 -0.54 -0.13 -1.12 -0.14 -1.68 0.02 -1.12 -0.06 -2.24 0.09 -3.36 z"
     class="style0"
     id="path78" />
  <path
     d="m 30.8 71.69 c -1.29 0.02 -2.55 1.06 -2.6 2.39 -0.13 1.45 1.22 2.75 2.65 2.69 0.74 0.04 1.41 -0.33 1.96 -0.78 0.05 0.26 0.1 0.52 0.15 0.79 0.18 -0.02 0.36 -0.04 0.54 -0.06 0.03 -1.66 0.04 -3.31 -0.01 -4.97 -0.21 0.01 -0.43 0.02 -0.64 0.03 -0 0.24 -0 0.48 0.01 0.72 -0.45 -0.34 -0.93 -0.67 -1.5 -0.75 -0.18 -0.04 -0.37 -0.06 -0.55 -0.06 z m 0.05 0.61 c 0.98 0.01 1.95 0.76 1.99 1.79 0.17 1.29 -1.25 2.38 -2.47 2.02 -0.84 -0.19 -1.52 -0.97 -1.5 -1.84 -0.03 -0.77 0.5 -1.48 1.18 -1.78 0.25 -0.12 0.53 -0.18 0.8 -0.18 z"
     class="style0"
     id="path80" />
  <path
     d="m 40.34 71.7 c -0.63 0.01 -1.26 0.22 -1.75 0.63 -0.99 0.76 -1.23 2.31 -0.47 3.31 0.85 1.23 2.73 1.49 3.93 0.62 0.35 -0.27 0.83 -0.62 0.59 -1.13 -0.43 -0.01 -0.67 0.37 -0.98 0.59 -0.79 0.66 -2.05 0.54 -2.76 -0.17 -0.33 -0.31 -0.46 -0.75 -0.61 -1.16 1.6 -0.04 3.2 0.04 4.8 -0.05 0.01 -0.62 -0.14 -1.26 -0.59 -1.72 -0.54 -0.63 -1.35 -0.95 -2.17 -0.93 z m 0.2 0.61 c 0.86 0.04 1.59 0.68 1.9 1.48 -1.37 0.01 -2.74 0.01 -4.1 -0 0.34 -0.82 1.1 -1.5 2.03 -1.47 0.06 -0 0.12 -0 0.17 -0 z"
     class="style0"
     id="path82" />
  <path
     d="m 60.07 71.69 c -1.31 0 -2.6 1.04 -2.64 2.4 -0.15 1.47 1.24 2.76 2.67 2.69 0.74 0.04 1.4 -0.36 1.96 -0.8 0.01 0.25 0.02 0.5 0.04 0.75 0.15 0 0.47 0.01 0.62 0.01 0.04 -1.66 0.04 -3.33 0 -4.99 -0.21 0 -0.42 0 -0.63 0.01 -0.01 0.24 -0.02 0.49 -0.02 0.74 -0.44 -0.33 -0.9 -0.66 -1.45 -0.75 -0.18 -0.04 -0.37 -0.07 -0.56 -0.06 z m -0.12 0.61 c 0.96 -0.06 1.95 0.63 2.1 1.61 0.19 0.96 -0.49 1.96 -1.43 2.18 -1.1 0.35 -2.43 -0.49 -2.51 -1.66 -0.11 -0.83 0.43 -1.66 1.19 -1.96 0.21 -0.1 0.43 -0.15 0.65 -0.16 z"
     class="style0"
     id="path84" />
  <path
     d="m 64.32 71.69 c 0.33 0.04 0.63 0.15 0.72 0.52 0.7 -0.47 1.61 -0.62 2.41 -0.34 0.78 0.28 1.42 1.03 1.41 1.89 0.02 1 0.02 1.99 -0.02 2.99 -0.16 -0 -0.47 -0 -0.63 -0.01 -0.06 -1.05 0.02 -2.1 -0.04 -3.15 -0.12 -0.94 -1.25 -1.48 -2.11 -1.19 -0.59 0.18 -1.11 0.72 -1.12 1.36 -0.03 0.99 0.02 1.99 -0.02 2.98 -0.16 0 -0.47 0 -0.63 0.01 -0.02 -1.68 -0.05 -3.37 0.02 -5.06 z"
     class="style0"
     id="path86" />
  <path
     d="m 76.37 71.7 c -1.11 0.03 -2.22 0.7 -2.57 1.79 -0.45 1.18 0.27 2.55 1.39 3.03 1.26 0.6 3.09 0.16 3.62 -1.23 -0.13 -0.04 -0.37 -0.12 -0.5 -0.16 -0.56 0.71 -1.47 1.25 -2.4 0.97 -0.85 -0.16 -1.42 -0.9 -1.62 -1.71 1.61 -0.04 3.23 0.05 4.84 -0.06 0.02 -1.07 -0.66 -2.09 -1.67 -2.45 -0.34 -0.14 -0.72 -0.21 -1.09 -0.2 z m 0.08 0.62 c 0.9 -0 1.67 0.66 2 1.48 -1.37 0.02 -2.74 0.01 -4.11 0 0.33 -0.79 1.03 -1.45 1.93 -1.47 0.06 -0.01 0.12 -0.01 0.18 -0.01 z"
     class="style0"
     id="path88" />
  <path
     d="m 80.6 72.11 c 1.04 -0.73 2.44 -0.41 3.4 0.3 -0.11 0.14 -0.21 0.28 -0.32 0.42 -0.6 -0.15 -1.13 -0.61 -1.78 -0.53 -0.44 0.02 -0.93 0.19 -1.13 0.62 -0.14 0.6 0.6 0.76 1.03 0.87 0.82 0.17 1.96 0.25 2.3 1.17 0.3 0.74 -0.38 1.42 -1.03 1.66 -1.11 0.43 -2.34 0 -3.26 -0.68 0.1 -0.14 0.2 -0.27 0.31 -0.4 0.72 0.18 1.36 0.73 2.15 0.63 0.51 -0.07 1.17 -0.31 1.25 -0.9 -0.61 -1.19 -2.31 -0.59 -3.16 -1.5 -0.5 -0.46 -0.29 -1.32 0.25 -1.65 z"
     class="style0"
     id="path90" />
  <path
     d="m 115.71 71.61 c -0.98 -0 -1.97 0.47 -2.45 1.35 -0.67 1.1 -0.23 2.62 0.86 3.28 1.3 0.88 3.32 0.44 4.01 -1.01 -0.34 -0.16 -0.67 -0.13 -0.9 0.17 -0.71 0.78 -2 0.89 -2.83 0.24 -0.44 -0.31 -0.64 -0.83 -0.83 -1.31 1.63 -0.1 3.27 0.11 4.89 -0.14 -0.09 -0.7 -0.32 -1.44 -0.89 -1.9 -0.5 -0.47 -1.17 -0.69 -1.84 -0.69 z m -0.13 0.63 c 0.06 0 0.12 0 0.18 0.01 0.92 -0.05 1.61 0.66 1.98 1.43 -1.38 0.03 -2.76 0.03 -4.14 0 0.37 -0.77 1.09 -1.45 1.98 -1.44 z"
     class="style2"
     id="path92" />
  <path
     d="m 91.034185,47.739342 c 0.26,-0.56 0.65,-1.18 1.35,-1.19 1.52,-0.06 2.9,0.73 4.25,1.32 -0.32,0.54 -0.81,1.09 -1.51,1 -1.42,-0.16 -2.69,-0.88 -4.09,-1.13 z"
     class="style1"
     id="path20"
     inkscape:connector-curvature="0"
     style="fill:#fcd00f" />
</svg>
